# xmcd CD database file
#
# Track frame offsets:
#	150
#	18303
#	44208
#	80475
#	105075
#	131895
#	149238
#	168297
#	191612
#	213523
#	241672
#	269625
#	292107
#	307051
#
# Disc length: 4318 seconds
#
# Revision: 0
# Processed by: cddbd v1.5.2PL0 Copyright (c) Steve Scherf et al.
# Submitted via: CDex 1.70beta2
#
DISCID=da10dc0e
DTITLE=Benny Carter - Jazz Roads CD106 - Swing - Vol.3 (1954)
DYEAR=2006
DGENRE=Jazz
TTITLE0=Art Tatum and Benny Carter and Louis Bellson  - My Blue Heaven
TTITLE1=Art Tatum and Benny Carter and Louis Bellson  - Blues In B Flat
TTITLE2=Art Tatum and Benny Carter and Louis Bellson  - Blues In C
TTITLE3=Art Tatum and Benny Carter and Louis Bellson  - A Foggy Day
TTITLE4=Art Tatum and Benny Carter and Louis Bellson  - (I'm Left With The) Blues In My Heart
TTITLE5=Art Tatum and Benny Carter and Louis Bellson  - Street Of Dreams
TTITLE6=Art Tatum and Benny Carter and Louis Bellson  - Idaho
TTITLE7=Art Tatum and Benny Carter and Louis Bellson  - You're Mine, You
TTITLE8=Art Tatum and Benny Carter and Louis Bellson  - Undecided
TTITLE9=Art Tatum and Benny Carter and Louis Bellson  - Under A Blanket Of Blue
TTITLE10=Art Tatum and Benny Carter and Louis Bellson  - Makin' Whoopee
TTITLE11=Art Tatum and Benny Carter and Louis Bellson  - Old Fashioned Love
TTITLE12=Art Tatum and Benny Carter and Louis Bellson  - 'S Wonderful
TTITLE13=Art Tatum and Benny Carter and Louis Bellson  - Hands Across The Table
EXTD=YEAR: 2006
EXTT0=
EXTT1=
EXTT2=
EXTT3=
EXTT4=
EXTT5=
EXTT6=
EXTT7=
EXTT8=
EXTT9=
EXTT10=
EXTT11=
EXTT12=
EXTT13=
PLAYORDER=
